# xmcd CD database file
#
# Track frame offsets:
#	150
#	19069
#	36861
#	59326
#	77806
#	95929
#	111637
#	129304
#	149296
#	160991
#	178765
#	207090
#
# Disc length: 3536 seconds
#
# Revision: 0
# Processed by: cddbd v1.4PL0 Copyright (c) Steve Scherf et al.
# Submitted via: Feurio! 1.63 - http://www.feurio.com
#
DISCID=ad0dce0c
DTITLE=Eric Heatherly - Swimming in Champagne
DYEAR=1900
DGENRE=Country
TTITLE0=Someone Else's Cadillac
TTITLE1=I Just Break'em
TTITLE2=Didn't Mean A Thing
TTITLE3=One Night
TTITLE4=Why Don't Cha
TTITLE5=Flowers On The Wall
TTITLE6=Let Me
TTITLE7=Swimming In Champagne
TTITLE8=Wrong Five O'clock
TTITLE9=Freedom Chain
TTITLE10=She's So Hot
TTITLE11=Datatrack with photos, lyrics ond other extras
EXTD=
EXTT0=
EXTT1=
EXTT2=
EXTT3=
EXTT4=
EXTT5=
EXTT6=
EXTT7=
EXTT8=
EXTT9=
EXTT10=
EXTT11=
PLAYORDER=
